<?xml version="1.0" standalone="no"?>
<!DOCTYPE svg PUBLIC "-//W3C//DTD SVG 20010904//EN"
 "http://www.w3.org/TR/2001/REC-SVG-20010904/DTD/svg10.dtd">
<svg version="1.0" xmlns="http://www.w3.org/2000/svg"
 width="300.000000pt" height="300.000000pt" viewBox="0 0 300.000000 300.000000"
 preserveAspectRatio="xMidYMid meet">
<metadata>
Created by potrace 1.11, written by Peter Selinger 2001-2013
</metadata>
<g transform="translate(0.000000,300.000000) scale(0.100000,-0.100000)"
fill="#000000" stroke="none">
<path d="M925 2984 c-86 -18 -198 -71 -244 -116 -50 -48 -97 -126 -117 -194
-25 -82 -26 -302 -1 -394 43 -157 118 -245 257 -300 27 -11 62 -22 77 -26 21
-5 217 -14 294 -14 4 0 8 -411 8 -912 0 -502 0 -939 0 -970 l1 -58 295 0 294
0 3 62 3 63 88 0 87 -1 0 63 0 63 80 0 c57 0 80 -4 81 -12 1 -7 2 -31 3 -53
l1 -40 85 -1 85 0 0 80 -1 81 -54 1 c-120 3 -118 3 -115 22 2 9 4 24 4 33 1
13 15 16 83 15 l82 -1 -1 100 c-1 55 -2 110 -2 122 -1 21 -6 22 -83 25 l-83 3
0 40 0 40 85 5 85 5 0 80 1 80 -81 0 c-91 0 -93 -2 -90 -77 l2 -48 -83 0 -82
0 0 48 c1 96 6 90 -69 90 -38 0 -78 0 -90 1 l-23 1 0 528 0 528 123 0 c136 0
203 13 294 55 161 76 237 228 238 474 0 132 -5 169 -34 245 -51 133 -173 229
-341 266 -19 4 -269 9 -555 10 -425 2 -533 0 -590 -12z m1088 -333 c23 -10 55
-30 72 -44 28 -24 30 -30 33 -109 3 -74 1 -87 -20 -118 -46 -68 -125 -100
-248 -100 l-60 0 0 199 c0 138 3 200 11 203 26 9 173 -13 212 -31z m-816 -173
c2 -221 9 -201 -72 -200 -78 1 -108 7 -158 32 -79 40 -92 64 -92 175 0 87 2
94 25 114 60 51 143 77 243 76 l52 0 2 -197z m767 -1848 c0 -43 10 -47 99 -45
l67 2 0 -89 0 -88 -83 0 -84 0 1 -32 1 -33 -87 -1 -88 -2 0 164 0 165 88 -3
87 -3 -1 -35z"/>
</g>
</svg>
